# Blender v2.82 (sub 7) OBJ File: 'palm.blend'
# www.blender.org
mtllib palmtest.mtl
o Cube
v -0.005319 4.349151 -0.014362
v 0.134160 2.241786 0.203071
v -0.153606 2.241786 0.203070
v 0.003841 2.241786 -0.065014
v 0.215965 0.046615 0.134473
v -0.317316 0.046615 0.156287
v 0.003723 0.046615 -0.312029
v 1.015639 4.739618 -0.080235
v 0.917235 4.739618 0.431467
v 2.019362 4.442935 0.372424
v -0.989362 4.740460 -0.526064
v -0.595745 4.740460 -0.900000
v -1.481383 4.349151 -1.332979
v -0.713830 4.640566 0.635107
v -0.261171 4.640566 0.910638
v -0.989362 4.349151 1.520745
v 0.815285 4.337083 -0.686525
v 0.370422 4.449490 -1.001710
v 0.953630 3.987018 -1.250887
v -0.355237 4.048792 0.457271
v -0.455120 3.986874 -0.023331
v -0.715539 3.154304 0.435087
v 0.804935 4.438985 0.370105
v 0.369723 4.308334 0.647755
v 1.019049 3.713848 0.942809
vt 0.526295 0.533594
vt 0.633193 0.542546
vt 0.629516 0.508464
vt 0.539607 0.551474
vt 0.660908 0.599747
vt 0.651982 0.577016
vt 0.523298 0.507197
vt 0.630796 0.451381
vt 0.642145 0.408431
vt 0.217003 0.958605
vt 0.305560 0.443569
vt 0.094629 0.531389
vt 0.223625 0.019267
vt 0.094629 0.531389
vt 0.223625 0.019267
vt 0.305560 0.443569
vt 0.305560 0.443569
vt 0.094629 0.531389
vt 0.223625 0.019267
vt 0.305560 0.443569
vt 0.223625 0.019267
vt 0.094629 0.531389
vt 0.305560 0.443569
vt 0.094629 0.531389
vt 0.223625 0.019267
vt 0.305560 0.443569
vt 0.094629 0.531389
vt 0.223625 0.019267
vt 0.896688 0.398168
vt 0.899169 0.328138
vt 0.912388 0.583625
vt 0.934919 0.655950
vt 0.919870 0.458911
vt 0.915587 0.521327
vn -0.1637 0.9853 0.0488
vn -0.8493 0.0768 0.5222
vn 0.8323 0.0611 0.5509
vn 0.0450 0.0772 -0.9960
vn -0.0508 0.9987 -0.0098
vn -0.0503 0.9987 -0.0096
vn 0.2621 0.9637 0.0504
vn -0.0042 0.9999 0.0069
vn -0.1602 0.9513 0.2632
vn 0.0011 1.0000 -0.0018
vn 0.0025 1.0000 0.0026
vn -0.0270 0.9992 -0.0285
vn -0.2686 0.9208 -0.2827
vn 0.3261 0.9369 -0.1262
vn 0.4700 0.7970 -0.3792
vn 0.2995 0.9504 -0.0838
vn -0.8218 0.5612 0.0985
vn -0.7979 0.5961 0.0890
vn -0.9192 0.3666 0.1438
vn 0.0690 0.8567 0.5112
vn 0.0265 0.8879 0.4593
vn 0.2642 0.6446 0.7174
vn 0.8674 0.0222 0.4971
vn 0.0736 0.1115 -0.9910
vn -0.8867 0.0462 0.4599
usemtl Material
s off
f 1/1/1 3/2/2 2/3/3
f 1/4/1 4/5/4 3/6/2
f 1/7/1 2/8/3 4/9/4
f 1/10/1 9/11/5 8/12/6
f 8/12/6 9/11/5 10/13/7
f 14/14/8 16/15/9 15/16/10
f 1/10/1 14/14/8 15/16/10
f 1/10/1 12/17/11 11/18/12
f 11/18/12 12/17/11 13/19/13
f 17/20/14 19/21/15 18/22/16
f 1/10/1 17/20/14 18/22/16
f 20/23/17 21/24/18 22/25/19
f 1/10/1 21/24/18 20/23/17
f 23/26/20 24/27/21 25/28/22
f 1/10/1 24/27/21 23/26/20
f 2/8/3 5/29/23 4/9/4
f 4/9/4 5/29/23 7/30/24
f 4/5/4 6/31/25 3/6/2
f 4/5/4 7/32/24 6/31/25
f 3/2/2 5/33/23 2/3/3
f 3/2/2 6/34/25 5/33/23
